<svg width="100%" height="100%" viewBox="0 0 80 80" fill="var(--color-b)" >
    <g>
        <g>
            <path d="M -0.00310047,59.517365 V 5.517285 H 18.036388 v 26.997221 h 17.957746 v 27.002859 z"/>
            <path d="m 43.993004,5.513251 v 54.00008 H 61.956388 V 32.513291 H 79.995876 V 5.513251 Z"/>
        </g>
        <g>
            <path d="M -0.00113792,68.120347 H 2.4986822 c 0.4982159,0 0.8653223,0.02622 1.11006,0.06118 0.2447376,0.0437 0.4632534,0.13111 0.6555472,0.262219 0.1922939,0.13111 0.3496252,0.305922 0.4807347,0.524438 0.1223688,0.218516 0.1922938,0.454513 0.1922938,0.725472 0,0.297182 -0.078666,0.568141 -0.235997,0.812879 -0.1573313,0.244738 -0.3758471,0.428291 -0.6468066,0.55066 0.3845877,0.104887 0.6730285,0.297181 0.8828036,0.568141 0.2010345,0.262219 0.3059221,0.576881 0.3059221,0.935247 0,0.288441 -0.069925,0.568141 -0.2010345,0.83036 -0.1311095,0.270959 -0.3146627,0.489475 -0.5419191,0.646806 -0.2272564,0.166072 -0.5069565,0.262219 -0.8478411,0.297182 -0.2097751,0.02622 -0.7167316,0.03496 -1.5208696,0.0437 h -2.13271362 z m 1.26739132,1.040135 v 1.450945 h 0.8303598 c 0.4894753,0 0.7953973,-0.0087 0.9090255,-0.02622 0.2185158,-0.02622 0.3933284,-0.09615 0.5156972,-0.218516 0.1223688,-0.122369 0.1835532,-0.288441 0.1835532,-0.489475 0,-0.192294 -0.052444,-0.349626 -0.1573313,-0.471994 C 3.4426702,69.282851 3.2765983,69.212926 3.0668231,69.186704 2.9444543,69.169223 2.5860885,69.160482 1.9917257,69.160482 Z m 0,2.49108 v 1.66946 h 1.1712444 c 0.4545127,0 0.7429535,-0.0087 0.8653223,-0.03496 0.1835533,-0.03496 0.3408846,-0.113628 0.4545128,-0.253478 0.1223688,-0.131109 0.1748126,-0.305922 0.1748126,-0.524438 0,-0.192294 -0.043703,-0.349625 -0.1311095,-0.480734 C 3.704889,71.896302 3.5737797,71.800155 3.4077077,71.738971 3.2328951,71.677791 2.857048,71.651561 2.2801665,71.651561 Z"/>
            <path d="m 6.3119959,74.378638 v -6.258291 h 2.6571514 c 0.6730285,0 1.1625037,0.06118 1.4596857,0.166072 0.305922,0.113628 0.550659,0.314663 0.725472,0.603103 0.183553,0.288441 0.2797,0.620585 0.2797,0.987692 0,0.471994 -0.13985,0.856581 -0.41955,1.162503 -0.27096,0.305922 -0.681769,0.498216 -1.2324291,0.576882 0.2709591,0.157331 0.4982161,0.332144 0.6730281,0.524438 0.174813,0.192294 0.419551,0.533178 0.716732,1.013913 l 0.769175,1.223688 H 10.428833 L 9.5110664,73.0151 C 9.1876631,72.534365 8.9691473,72.219702 8.8467785,72.097334 8.7331503,71.974965 8.6020409,71.887559 8.4709314,71.835115 8.339822,71.791412 8.1213062,71.76519 7.8328655,71.76519 H 7.5793872 v 2.613448 z m 1.2673913,-3.60988 h 0.9352474 c 0.6031034,0 0.9789505,-0.02622 1.1362819,-0.07867 0.1485907,-0.05244 0.2622189,-0.13985 0.3496255,-0.262219 0.08741,-0.122368 0.131109,-0.2797 0.131109,-0.471994 0,-0.209775 -0.06118,-0.375847 -0.1748125,-0.506956 C 9.8519509,69.317813 9.685879,69.239148 9.4848445,69.204185 9.3799569,69.186704 9.0740349,69.177963 8.5670784,69.177963 H 7.5793872 Z"/>
            <path d="m 12.616389,68.120347 h 1.258651 v 3.391364 c 0,0.533179 0.01748,0.882804 0.05244,1.048876 0.05244,0.253478 0.183553,0.454513 0.384588,0.611844 0.201034,0.157331 0.480734,0.235997 0.830359,0.235997 0.358366,0 0.629326,-0.07867 0.812879,-0.218516 0.183553,-0.14859 0.288441,-0.332144 0.332144,-0.541919 0.03496,-0.218515 0.05244,-0.568141 0.05244,-1.066357 v -3.461289 h 1.267391 v 3.286477 c 0,0.751694 -0.03496,1.284872 -0.104888,1.590794 -0.06992,0.314663 -0.192293,0.576882 -0.375847,0.786657 -0.183553,0.218516 -0.428291,0.384588 -0.742953,0.506957 -0.305922,0.131109 -0.707991,0.192294 -1.197466,0.192294 -0.603104,0 -1.048876,-0.06992 -1.363539,-0.201035 -0.305922,-0.13985 -0.550659,-0.323403 -0.734213,-0.541919 -0.174812,-0.218516 -0.297181,-0.454513 -0.349625,-0.69051 -0.08741,-0.358366 -0.122369,-0.891544 -0.122369,-1.590794 z"/>
            <path d="m 18.947004,74.378638 v -6.258291 h 1.232428 l 2.561005,4.178021 v -4.178021 h 1.171244 v 6.258291 H 22.64429 l -2.526042,-4.081874 v 4.081874 z"/>
            <path d="m 24.98562,71.284455 c 0,-0.629325 0.09615,-1.171244 0.288441,-1.599535 0.13985,-0.323404 0.340884,-0.603104 0.585622,-0.856582 0.244738,-0.253478 0.515697,-0.445772 0.804138,-0.568141 0.393328,-0.166072 0.8391,-0.244737 1.354798,-0.244737 0.917766,0 1.660719,0.28844 2.211379,0.856581 0.55066,0.576882 0.83036,1.372279 0.83036,2.386192 0,1.013913 -0.2797,1.80057 -0.821619,2.368711 -0.55066,0.576881 -1.284873,0.856582 -2.202639,0.856582 -0.935248,0 -1.66946,-0.279701 -2.22012,-0.847842 -0.55066,-0.56814 -0.83036,-1.354797 -0.83036,-2.351229 z m 1.302354,-0.03496 c 0,0.707991 0.166072,1.241169 0.498216,1.608275 0.323403,0.367107 0.734213,0.55066 1.241169,0.55066 0.506957,0 0.917766,-0.183553 1.24117,-0.55066 0.323403,-0.358365 0.480734,-0.900284 0.480734,-1.625757 0,-0.716731 -0.157331,-1.25865 -0.471994,-1.608276 -0.314662,-0.349625 -0.725472,-0.524437 -1.24991,-0.524437 -0.515697,0 -0.935247,0.174812 -1.25865,0.533178 -0.314663,0.358366 -0.480735,0.891544 -0.480735,1.617017 z"/>
            <path d="m 32.048514,74.378638 v -6.258291 h 2.027826 c 0.769176,0 1.267391,0.03496 1.503388,0.09615 0.358366,0.09615 0.655548,0.297181 0.900285,0.611844 0.235997,0.314663 0.358366,0.716732 0.358366,1.214948 0,0.384587 -0.06993,0.707991 -0.209775,0.97021 -0.13985,0.262218 -0.314663,0.471994 -0.533178,0.620584 -0.209776,0.148591 -0.428291,0.244738 -0.655548,0.297182 -0.297181,0.06118 -0.734213,0.08741 -1.302354,0.08741 h -0.830359 v 2.35997 z m 1.258651,-5.200675 v 1.774348 h 0.690509 c 0.498216,0 0.83036,-0.02622 1.005173,-0.09615 0.166072,-0.06118 0.297181,-0.166072 0.393328,-0.305922 0.09615,-0.13985 0.13985,-0.297181 0.13985,-0.489475 0,-0.227256 -0.06118,-0.41081 -0.201034,-0.5594 -0.13111,-0.148591 -0.297182,-0.244738 -0.506957,-0.279701 -0.14859,-0.02622 -0.454512,-0.0437 -0.909025,-0.0437 z"/>
            <path d="m 37.877665,74.378638 v -6.258291 h 4.641274 v 1.057616 h -3.382623 v 1.38976 h 3.146626 v 1.057617 h -3.146626 v 1.695682 h 3.496252 v 1.057616 z"/>
            <path d="m 43.706816,74.378638 v -6.258291 h 2.657151 c 0.673029,0 1.162504,0.06118 1.459686,0.166072 0.305922,0.113628 0.550659,0.314663 0.725472,0.603103 0.183553,0.288441 0.2797,0.620585 0.2797,0.987692 0,0.471994 -0.13985,0.856581 -0.41955,1.162503 -0.27096,0.305922 -0.681769,0.498216 -1.232429,0.576882 0.27096,0.157331 0.498216,0.332144 0.673029,0.524438 0.174812,0.192294 0.41955,0.533178 0.716731,1.013913 l 0.769176,1.223688 H 47.823653 L 46.905886,73.0151 c -0.323403,-0.480735 -0.541919,-0.795398 -0.664287,-0.917766 -0.113629,-0.122369 -0.244738,-0.209775 -0.375847,-0.262219 -0.13111,-0.0437 -0.349626,-0.06992 -0.638066,-0.06992 h -0.253479 v 2.613448 z m 1.267391,-3.60988 h 0.935248 c 0.603103,0 0.97895,-0.02622 1.136282,-0.07867 0.14859,-0.05244 0.262218,-0.13985 0.349625,-0.262219 0.08741,-0.122368 0.131109,-0.2797 0.131109,-0.471994 0,-0.209775 -0.06118,-0.375847 -0.174812,-0.506956 -0.104888,-0.13111 -0.27096,-0.209775 -0.471994,-0.244738 -0.104888,-0.01748 -0.41081,-0.02622 -0.917767,-0.02622 h -0.987691 z"/>
            <path d="M 50.019949,74.378638 V 68.120347 H 52.6771 c 0.673029,0 1.162504,0.06118 1.459686,0.166072 0.305922,0.113628 0.550659,0.314663 0.725472,0.603103 0.183553,0.288441 0.2797,0.620585 0.2797,0.987692 0,0.471994 -0.13985,0.856581 -0.41955,1.162503 -0.27096,0.305922 -0.681769,0.498216 -1.232429,0.576882 0.27096,0.157331 0.498216,0.332144 0.673029,0.524438 0.174812,0.192294 0.41955,0.533178 0.716731,1.013913 l 0.769176,1.223688 H 54.136786 L 53.219019,73.0151 c -0.323403,-0.480735 -0.541919,-0.795398 -0.664287,-0.917766 -0.113629,-0.122369 -0.244738,-0.209775 -0.375847,-0.262219 -0.13111,-0.0437 -0.349626,-0.06992 -0.638066,-0.06992 H 51.28734 v 2.613448 z m 1.267391,-3.60988 h 0.935248 c 0.603103,0 0.97895,-0.02622 1.136282,-0.07867 0.14859,-0.05244 0.262218,-0.13985 0.349625,-0.262219 0.08741,-0.122368 0.131109,-0.2797 0.131109,-0.471994 0,-0.209775 -0.06118,-0.375847 -0.174812,-0.506956 -0.104888,-0.13111 -0.27096,-0.209775 -0.471994,-0.244738 -0.104888,-0.01748 -0.41081,-0.02622 -0.917767,-0.02622 H 51.28734 Z"/>
            <path d="m 57.652479,74.378638 v -2.63093 l -2.290045,-3.627361 h 1.477167 l 1.468426,2.473598 1.442204,-2.473598 h 1.459685 l -2.298786,3.636102 v 2.622189 z"/>
            <g transform="matrix(8.7406298,0,0,8.7406298,60.23236,74.378638)" >
                <rect x="0.071999997" y="-0.13699999" width="0.13699999" height="0.13699999"/>
            </g>
            <path d="m 63.3062,74.378638 v -6.258291 h 1.232428 l 2.561005,4.178021 v -4.178021 h 1.171244 v 6.258291 h -1.267391 l -2.526042,-4.081874 v 4.081874 z"/>
            <path d="m 69.610593,74.378638 v -6.258291 h 4.641274 v 1.057616 h -3.382623 v 1.38976 h 3.146626 v 1.057617 h -3.146626 v 1.695682 h 3.496252 v 1.057616 z"/>
            <path d="M 76.846984,74.378638 V 69.177963 H 74.98523 v -1.057616 h 4.973419 v 1.057616 h -1.853014 v 5.200675 z"/>
        </g>
    </g>
</svg>